<?xml version="1.0" standalone="no"?>
<!DOCTYPE svg PUBLIC "-//W3C//DTD SVG 20010904//EN"
 "http://www.w3.org/TR/2001/REC-SVG-20010904/DTD/svg10.dtd">
<svg version="1.0" xmlns="http://www.w3.org/2000/svg"
 width="269.000000pt" height="269.000000pt" viewBox="0 0 269.000000 269.000000"
 preserveAspectRatio="xMidYMid meet">
<metadata>
Created by potrace 1.14, written by Peter Selinger 2001-2017
</metadata>
<g transform="translate(0.000000,269.000000) scale(0.100000,-0.100000)"
fill="#000000" stroke="none">
<path d="M224 2355 c-128 -38 -203 -127 -212 -255 -4 -57 0 -77 33 -165 89
-238 257 -536 387 -687 13 -14 34 -41 48 -59 14 -17 73 -80 132 -138 l107
-107 -57 -12 c-94 -19 -192 -31 -307 -37 -134 -7 -191 -25 -248 -75 -67 -60
-92 -119 -92 -215 1 -87 17 -132 72 -191 62 -66 140 -92 268 -88 282 9 667 94
926 204 l66 28 44 -20 c85 -38 319 -115 409 -133 8 -2 15 -4 15 -5 0 -2 24 -7
75 -15 24 -4 48 -8 51 -11 4 -2 24 -6 45 -9 22 -3 48 -8 59 -10 11 -2 47 -7
80 -11 33 -3 91 -9 128 -13 170 -18 267 2 341 73 140 132 107 369 -64 456 -46
23 -75 28 -191 35 -154 9 -284 26 -333 45 -13 5 -26 8 -27 7 -2 -2 41 43 97
98 187 186 331 383 447 613 107 210 165 368 161 435 -5 70 -34 136 -79 182
-61 62 -111 83 -205 90 -36 2 -120 -24 -155 -48 -64 -45 -93 -88 -138 -209
-53 -139 -154 -321 -252 -453 -124 -167 -254 -290 -434 -413 l-75 -50 -62 44
c-34 24 -66 44 -72 44 -6 0 -12 3 -14 8 -1 4 -28 27 -58 51 -76 62 -215 203
-277 281 -109 140 -201 302 -279 494 -35 87 -59 131 -89 162 -68 72 -182 106
-271 79z"/>
</g>
</svg>
